<?xml version="1.0" encoding="utf-8"?>
<!-- Generator: Adobe Illustrator 17.0.0, SVG Export Plug-In . SVG Version: 6.00 Build 0)  -->
<!DOCTYPE svg PUBLIC "-//W3C//DTD SVG 1.1//EN" "http://www.w3.org/Graphics/SVG/1.1/DTD/svg11.dtd">
<svg version="1.1" id="Layer_1" xmlns="http://www.w3.org/2000/svg" xmlns:xlink="http://www.w3.org/1999/xlink" x="0px" y="0px"
	 width="1134.113px" height="511.192px" viewBox="0 0 1134.113 511.192" enable-background="new 0 0 1134.113 511.192"
	 xml:space="preserve">
<g>
	<rect id="XMLID_1_" x="352.758" y="52.551" fill="none" width="830.678" height="368.418"/>
	
		<text id="XMLID_6_" transform="matrix(1 0 0 1 352.7594 352.8437)" fill="#0774A5" font-family="'GeometricSlab703BT-Medium'" font-size="417.0769">iosk</text>
	<g opacity="0.2">
		
			<linearGradient id="SVGID_1_" gradientUnits="userSpaceOnUse" x1="113.7747" y1="114.3942" x2="1124.6334" y2="-576.3303" gradientTransform="matrix(1 0 0 -1 0 224.384)">
			<stop  offset="0" style="stop-color:#000000"/>
			<stop  offset="1" style="stop-color:#FFFFFF"/>
		</linearGradient>
		<polygon fill="url(#SVGID_1_)" points="726.39,515.591 1034.854,515.591 236.324,2.155 26.743,274.297 175.82,371.335 
			273.514,221.12 		"/>
		
			<linearGradient id="SVGID_2_" gradientUnits="userSpaceOnUse" x1="-33.9918" y1="-101.8586" x2="976.8667" y2="-792.5831" gradientTransform="matrix(1 0 0 -1 0 224.384)">
			<stop  offset="0" style="stop-color:#000000"/>
			<stop  offset="1" style="stop-color:#FFFFFF"/>
		</linearGradient>
		<polygon fill="url(#SVGID_2_)" points="175.82,371.335 84.091,512.379 89.026,515.591 397.438,515.591 		"/>
		
			<linearGradient id="SVGID_3_" gradientUnits="userSpaceOnUse" x1="65.8081" y1="44.1962" x2="1076.6669" y2="-646.5283" gradientTransform="matrix(1 0 0 -1 0 224.384)">
			<stop  offset="0" style="stop-color:#000000"/>
			<stop  offset="1" style="stop-color:#FFFFFF"/>
		</linearGradient>
		<polygon fill="url(#SVGID_3_)" points="726.39,515.591 273.514,221.12 175.82,371.335 397.438,515.591 		"/>
		
			<linearGradient id="SVGID_4_" gradientUnits="userSpaceOnUse" x1="65.8082" y1="44.1962" x2="1076.6666" y2="-646.5283" gradientTransform="matrix(1 0 0 -1 0 224.384)">
			<stop  offset="0" style="stop-color:#000000"/>
			<stop  offset="1" style="stop-color:#FFFFFF"/>
		</linearGradient>
		<polygon fill="url(#SVGID_4_)" points="726.39,515.591 273.514,221.12 175.82,371.335 397.438,515.591 		"/>
		<polygon fill="#FFFFFF" points="1034.854,515.591 726.39,515.591 397.438,515.591 89.026,515.591 -54.761,515.591 
			-54.761,1058.486 1325.069,1058.486 1325.069,515.591 		"/>
	</g>
	<g>
		<g id="XMLID_5_">
			
				<linearGradient id="XMLID_3_" gradientUnits="userSpaceOnUse" x1="155.6091" y1="-219.7575" x2="179.5216" y2="129.3599" gradientTransform="matrix(1 0 0 -1 0 224.384)">
				<stop  offset="0.2859" style="stop-color:#262626"/>
				<stop  offset="0.4503" style="stop-color:#645626"/>
				<stop  offset="0.6436" style="stop-color:#A68925"/>
				<stop  offset="0.8064" style="stop-color:#D6AF25"/>
				<stop  offset="0.93" style="stop-color:#F4C625"/>
				<stop  offset="1" style="stop-color:#FFCF25"/>
			</linearGradient>
			<path id="XMLID_39_" fill="url(#XMLID_3_)" d="M116.762,15.015c2.781-7.299,11.122-12.86,18.768-12.86h100.794
				c7.646,0,11.817,5.909,9.384,13.207l-46.574,133.465c-2.433,7.299,1.738,13.207,9.384,13.207h104.269
				c7.646,0,10.427,5.213,5.909,11.47L87.567,511.336c-4.171,6.256-5.909,5.561-3.476-1.738l75.421-220.008
				c2.433-7.299-1.738-13.207-9.384-13.207H31.262c-7.646,0-11.817-5.909-9.037-12.86L116.762,15.015z"/>
		</g>
		<g>
			<defs>
				<ellipse id="SVGID_5_" cx="241.538" cy="342.072" rx="238.081" ry="246.075"/>
			</defs>
			<clipPath id="SVGID_6_">
				<use xlink:href="#SVGID_5_"  overflow="visible"/>
			</clipPath>
			<g id="XMLID_21_" clip-path="url(#SVGID_6_)">
				
					<linearGradient id="XMLID_4_" gradientUnits="userSpaceOnUse" x1="155.6091" y1="-219.7575" x2="179.5216" y2="129.3599" gradientTransform="matrix(1 0 0 -1 0 224.384)">
					<stop  offset="0.2859" style="stop-color:#262626"/>
					<stop  offset="0.4503" style="stop-color:#645626"/>
					<stop  offset="0.6436" style="stop-color:#A68925"/>
					<stop  offset="0.8064" style="stop-color:#D6AF25"/>
					<stop  offset="0.93" style="stop-color:#F4C625"/>
					<stop  offset="1" style="stop-color:#FFCF25"/>
				</linearGradient>
				<path id="XMLID_41_" fill="url(#XMLID_4_)" d="M116.762,15.015c2.781-7.299,11.122-12.86,18.768-12.86h100.794
					c7.646,0,11.817,5.909,9.384,13.207l-46.574,133.465c-2.433,7.299,1.738,13.207,9.384,13.207h104.269
					c7.646,0,10.427,5.213,5.909,11.47L87.567,511.336c-4.171,6.256-5.909,5.561-3.476-1.738l75.421-220.008
					c2.433-7.299-1.738-13.207-9.384-13.207H31.262c-7.646,0-11.817-5.909-9.037-12.86L116.762,15.015z"/>
			</g>
		</g>
	</g>
</g>
</svg>
